<svg width="150.000000" height="150.000000" viewBox="0 0 150 150" fill="none" xmlns="http://www.w3.org/2000/svg" xmlns:xlink="http://www.w3.org/1999/xlink">
	<desc>
			Created with Pixso.
	</desc>
	<defs/>
	<circle id="Ellipse 2" cx="75.000000" cy="75.000000" r="75.000000" fill="#FFFFFF" fill-opacity="1.000000"/>
	<circle id="Ellipse 2" cx="75.000000" cy="75.000000" r="74.500000" stroke="#0066FF" stroke-opacity="1.000000" stroke-width="1.000000"/>
	<path id="Vector" d="M82.9967 61.1969C82.7371 61.0464 82.4501 60.9488 82.1525 60.9097C81.8549 60.8707 81.5525 60.8909 81.2627 60.9693C80.9729 61.0476 80.7015 61.1826 80.4642 61.3663C80.2269 61.55 80.0284 61.7789 79.8801 62.0398L66.79 84.6882C66.6395 84.9478 66.5419 85.2345 66.5028 85.532C66.4637 85.8295 66.4839 86.1317 66.5624 86.4213C66.6407 86.7109 66.7758 86.9822 66.9596 87.2194C67.1434 87.4565 67.3724 87.655 67.6334 87.8032C67.9749 88.0115 68.3705 88.1135 68.77 88.0964C69.1703 88.0947 69.5632 87.9891 69.9103 87.79C70.2574 87.5908 70.5468 87.3049 70.7501 86.9603L83.8401 64.312C83.9957 64.0537 84.0974 63.7667 84.1392 63.4681C84.181 63.1696 84.1619 62.8657 84.0831 62.5746C84.0044 62.2836 83.8674 62.0116 83.6808 61.7748C83.4941 61.538 83.2615 61.3415 82.9967 61.1969ZM72.9501 68.7463C73.0297 66.6587 72.2803 64.6243 70.8655 63.0865C69.4506 61.5488 67.4847 60.6324 65.3967 60.5372C63.3055 60.6325 61.3362 61.5476 59.9154 63.0842C58.4946 64.6208 57.7371 66.6552 57.8068 68.7463C57.7272 70.8437 58.4803 72.8875 59.9021 74.4321C61.324 75.9767 63.299 76.8969 65.3967 76.9921C67.4915 76.897 69.4629 75.9755 70.8788 74.4298C72.2947 72.8841 73.0396 70.8402 72.9501 68.7463ZM65.3967 72.4111C64.5178 72.3095 63.7128 71.8704 63.1517 71.1866C62.5907 70.5027 62.3176 69.6277 62.3901 68.7463C62.308 67.863 62.5776 66.9829 63.1405 66.2969C63.7032 65.6108 64.5139 65.1742 65.3967 65.0815C66.2769 65.174 67.0841 65.6119 67.6411 66.2992C68.1981 66.9865 68.4591 67.8668 68.3667 68.7463C68.4493 69.624 68.1847 70.4991 67.6295 71.1841C67.0743 71.8691 66.2728 72.3096 65.3967 72.4111ZM85.27 72.008C83.182 72.1032 81.2163 73.0196 79.8014 74.5573C78.3865 76.095 77.6372 78.1295 77.7168 80.2172C77.6272 82.311 78.3721 84.3549 79.7881 85.9006C81.204 87.4464 83.1754 88.3678 85.27 88.4629C87.3678 88.3677 89.3429 87.4474 90.7646 85.9028C92.1864 84.3582 92.9397 82.3145 92.8601 80.2172C92.9298 78.126 92.1721 76.0917 90.7515 74.5551C89.3307 73.0184 87.3613 72.1033 85.27 72.008ZM85.27 83.8819C84.3939 83.7804 83.5924 83.3399 83.0374 82.6549C82.4822 81.9699 82.2175 81.0948 82.3 80.2172C82.2175 79.3395 82.4822 78.4644 83.0374 77.7794C83.5924 77.0944 84.3939 76.6539 85.27 76.5524C86.1528 76.645 86.9635 77.0817 87.5264 77.7676C88.0891 78.4537 88.3588 79.3337 88.2767 80.2172C88.3492 81.0985 88.076 81.9735 87.515 82.6573C86.954 83.3412 86.149 83.7803 85.27 83.8819Z" fill="#0066FF" fill-opacity="1.000000" fill-rule="nonzero"/>
	<path id="Vector" d="M72.9501 68.7463C73.0297 66.6587 72.2803 64.6243 70.8655 63.0865C69.4506 61.5488 67.4847 60.6324 65.3967 60.5372C63.3055 60.6325 61.3362 61.5476 59.9154 63.0842C58.4946 64.6208 57.7371 66.6552 57.8068 68.7463C57.7272 70.8437 58.4803 72.8875 59.9021 74.4321C61.324 75.9767 63.299 76.8969 65.3967 76.9921C67.4915 76.897 69.4629 75.9755 70.8788 74.4298C72.2947 72.8841 73.0396 70.8402 72.9501 68.7463ZM65.3967 75.991Q63.9897 75.9192 62.8066 75.3674Q61.6072 74.8079 60.6379 73.7548Q59.6667 72.6998 59.2089 71.4558Q58.7518 70.2142 58.806 68.7842L58.8074 68.7487L58.8062 68.713Q58.7587 67.2878 59.2186 66.0513Q59.6794 64.8124 60.6497 63.7631Q61.618 62.7158 62.8146 62.1591Q63.9946 61.6102 65.3967 61.5384Q66.796 61.6101 67.9725 62.1592Q69.1656 62.716 70.1295 63.7636Q71.0953 64.8133 71.5507 66.0507Q72.005 67.2859 71.9508 68.7083L71.9492 68.7487L71.951 68.7891Q72.012 70.216 71.5605 71.4564Q71.1082 72.699 70.1414 73.7543Q69.1765 74.8077 67.9806 75.3673Q66.801 75.9193 65.3967 75.991ZM82.9967 61.1969C82.7371 61.0464 82.4501 60.9488 82.1525 60.9097C81.8549 60.8707 81.5525 60.8909 81.2627 60.9693C80.9729 61.0476 80.7015 61.1826 80.4642 61.3663C80.2269 61.55 80.0284 61.7789 79.8801 62.0398L66.79 84.6882C66.6395 84.9478 66.5419 85.2345 66.5028 85.532C66.4637 85.8295 66.4839 86.1317 66.5624 86.4213C66.6407 86.7109 66.7758 86.9822 66.9596 87.2194C67.1434 87.4565 67.3724 87.655 67.6334 87.8032C67.9749 88.0115 68.3705 88.1135 68.77 88.0964C69.1703 88.0947 69.5632 87.9891 69.9103 87.79C70.2574 87.5908 70.5468 87.3049 70.7501 86.9603L83.8401 64.312C83.9957 64.0537 84.0974 63.7667 84.1392 63.4681C84.181 63.1696 84.1619 62.8657 84.0831 62.5746C84.0044 62.2836 83.8674 62.0116 83.6808 61.7748C83.4941 61.538 83.2615 61.3415 82.9967 61.1969ZM81.7711 61.893Q81.8959 61.8846 82.0223 61.9012Q82.149 61.9178 82.2676 61.9583Q82.3855 61.9984 82.4954 62.0621L82.5062 62.0684L82.5173 62.0745Q82.6288 62.1354 82.7238 62.2157Q82.8177 62.2953 82.8955 62.394Q82.974 62.4935 83.0297 62.6044Q83.085 62.7146 83.1179 62.836Q83.1509 62.9579 83.1586 63.0814Q83.1664 63.2047 83.1488 63.3296Q83.1462 63.3482 83.1431 63.3667Q83.1035 63.5969 82.9742 63.8116L69.8888 86.4522Q69.8011 86.6008 69.6826 86.7181Q69.5632 86.8362 69.4126 86.9226Q69.2627 87.0087 69.1012 87.0521Q68.9393 87.0957 68.7659 87.0964L68.7466 87.0965L68.7273 87.0974Q68.5725 87.1039 68.429 87.0669Q68.2859 87.0299 68.1541 86.9495L68.1409 86.9414L68.1273 86.9338Q68.0161 86.8705 67.9213 86.7883Q67.8275 86.7068 67.75 86.6068Q67.6718 86.5058 67.616 86.3936Q67.5607 86.2823 67.5276 86.16Q67.4944 86.0371 67.486 85.9126Q67.4777 85.7883 67.4943 85.6623Q67.5094 85.5467 67.5447 85.4376Q67.5863 85.3086 67.6559 85.1886L80.7494 62.5341Q80.812 62.424 80.8934 62.33Q80.9755 62.2352 81.0764 62.157Q81.1769 62.0793 81.2883 62.0238Q81.4004 61.968 81.5238 61.9346Q81.6466 61.9014 81.7711 61.893ZM61.5664 70.3414Q61.8126 71.131 62.3787 71.8209Q62.9438 72.5096 63.6688 72.9055Q64.3951 73.302 65.2819 73.4045L65.3969 73.4178L65.5118 73.4045Q66.3984 73.3018 67.1226 72.9035Q67.8455 72.5059 68.4064 71.8137Q68.9683 71.1205 69.2072 70.3298Q69.4325 69.5842 69.3707 68.7518Q69.4419 67.9141 69.2195 67.1633Q68.9836 66.3676 68.418 65.6696Q67.8531 64.9726 67.1246 64.577Q66.395 64.1808 65.5011 64.087L65.3967 64.076L65.2924 64.087Q64.3986 64.1808 63.6669 64.5753Q62.9364 64.9691 62.3674 65.6626Q61.7975 66.3572 61.5543 67.1517Q61.3232 67.9066 61.387 68.7516Q61.3325 69.5914 61.5664 70.3414ZM62.3901 68.7463C62.3176 69.6277 62.5907 70.5027 63.1517 71.1866C63.7128 71.8704 64.5178 72.3095 65.3967 72.4111C66.2728 72.3096 67.0743 71.8691 67.6295 71.1841C68.1847 70.4991 68.4493 69.624 68.3667 68.7463C68.4591 67.8668 68.1981 66.9865 67.6411 66.2992C67.0841 65.6119 66.2769 65.174 65.3967 65.0815C64.5139 65.1742 63.7032 65.6108 63.1405 66.2969C62.5776 66.9829 62.308 67.863 62.3901 68.7463ZM85.27 72.008C83.182 72.1032 81.2163 73.0196 79.8014 74.5573C78.3865 76.095 77.6372 78.1295 77.7168 80.2172C77.6272 82.311 78.3721 84.3549 79.7881 85.9006C81.204 87.4464 83.1754 88.3678 85.27 88.4629C87.3678 88.3677 89.3429 87.4474 90.7646 85.9028C92.1864 84.3582 92.9397 82.3145 92.8601 80.2172C92.9298 78.126 92.1721 76.0917 90.7515 74.5551C89.3307 73.0184 87.3613 72.1033 85.27 72.008ZM85.2701 73.0092Q83.8707 73.0809 82.6942 73.63Q81.5012 74.1868 80.5372 75.2344Q79.5714 76.2841 79.1162 77.5216Q78.6617 78.7568 78.7161 80.179L78.7175 80.2195L78.7158 80.2598Q78.6548 81.6868 79.1063 82.9271Q79.5586 84.1697 80.5254 85.2251Q81.4904 86.2785 82.6863 86.8381Q83.8658 87.3901 85.27 87.4617Q86.6771 87.39 87.8601 86.8381Q89.0597 86.2786 90.0289 85.2256Q91.0001 84.1705 91.458 82.9266Q91.915 81.6849 91.8608 80.2551L91.8595 80.2194L91.8606 80.1838Q91.9081 78.7585 91.4481 77.522Q90.9873 76.2832 90.0172 75.2339Q89.0488 74.1866 87.8522 73.6299Q86.6721 73.0809 85.2701 73.0092ZM81.4597 81.8006Q81.6986 82.5914 82.2604 83.2845Q82.8213 83.9767 83.5443 84.3743Q84.2684 84.7725 85.1549 84.8752L85.2699 84.8886L85.3849 84.8753Q86.2717 84.7728 86.9979 84.3763Q87.723 83.9805 88.2881 83.2916Q88.8541 82.6017 89.1003 81.8122Q89.3344 81.0623 89.2798 80.2224Q89.3435 79.3773 89.1124 78.6225Q88.8693 77.8279 88.2994 77.1334Q87.7305 76.4399 87 76.0461Q86.2682 75.6516 85.3744 75.5578L85.2646 75.5463L85.1549 75.559Q84.2683 75.6617 83.5442 76.06Q82.8213 76.4576 82.2604 77.1497Q81.6986 77.8429 81.4597 78.6337Q81.2336 79.3817 81.2965 80.2172Q81.2336 81.0526 81.4597 81.8006ZM82.3 80.2172C82.2175 81.0948 82.4822 81.9699 83.0374 82.6549C83.5924 83.3399 84.3939 83.7804 85.27 83.8819C86.149 83.7803 86.954 83.3412 87.515 82.6573C88.076 81.9735 88.3492 81.0985 88.2767 80.2172C88.3588 79.3337 88.0891 78.4537 87.5264 77.7676C86.9635 77.0817 86.1528 76.645 85.27 76.5524C84.3939 76.6539 83.5924 77.0944 83.0374 77.7794C82.4822 78.4644 82.2175 79.3395 82.3 80.2172Z" fill="#0066FF" fill-opacity="1.000000" fill-rule="evenodd"/>
	<path id="Vector" d="M75.3334 47.0141C67.7983 46.777 60.4772 49.5383 54.9774 54.6917C49.4777 59.845 46.2489 66.9692 46 74.5C46.2489 82.0308 49.4777 89.155 54.9774 94.3083C60.4772 99.4617 67.7983 102.223 75.3334 101.986C82.8683 102.223 90.1895 99.4617 95.6892 94.3083C101.189 89.155 104.418 82.0308 104.667 74.5C104.418 66.9692 101.189 59.845 95.6892 54.6917C90.1895 49.5383 82.8683 46.777 75.3334 47.0141ZM75.3334 97.4049C69.0162 97.6331 62.866 95.3513 58.2278 91.0588C53.5895 86.7664 50.8409 80.8127 50.5834 74.5C50.8409 68.1873 53.5895 62.2336 58.2278 57.9412C62.866 53.6487 69.0162 51.3669 75.3334 51.5951C81.6504 51.3669 87.8007 53.6487 92.439 57.9412C97.0771 62.2336 99.8257 68.1873 100.083 74.5C99.8257 80.8127 97.0771 86.7664 92.439 91.0588C87.8007 95.3513 81.6504 97.6331 75.3334 97.4049Z" fill="#0066FF" fill-opacity="1.000000" fill-rule="nonzero"/>
	<path id="Vector" d="M75.3334 47.0141C67.7983 46.777 60.4772 49.5383 54.9774 54.6917C49.4777 59.845 46.2489 66.9692 46 74.5C46.2489 82.0308 49.4777 89.155 54.9774 94.3083C60.4772 99.4617 67.7983 102.223 75.3334 101.986C82.8683 102.223 90.1895 99.4617 95.6892 94.3083C101.189 89.155 104.418 82.0308 104.667 74.5C104.418 66.9692 101.189 59.845 95.6892 54.6917C90.1895 49.5383 82.8683 46.777 75.3334 47.0141ZM103.666 74.5Q103.474 68.8511 101.318 64.0908Q99.1528 59.3074 95.0055 55.4213Q90.8655 51.5421 85.9601 49.69Q81.0464 47.8348 75.3647 48.0136L75.3334 48.0146L75.3019 48.0136Q69.6201 47.8348 64.7064 49.6901Q59.8011 51.5421 55.6611 55.4213Q51.5138 59.3075 49.3481 64.0909Q47.193 68.8511 47.0006 74.5Q47.193 80.1488 49.3481 84.909Q51.5138 89.6924 55.6611 93.5787Q59.8011 97.4579 64.7065 99.31Q69.6202 101.165 75.3019 100.986L75.3334 100.985L75.3647 100.986Q81.0464 101.165 85.9601 99.31Q90.8655 97.4579 95.0055 93.5787Q99.1528 89.6926 101.318 84.9092Q103.474 80.1489 103.666 74.5ZM51.7811 83.9805Q53.7725 88.2982 57.5486 91.7928Q61.3181 95.2814 65.7694 96.9344Q70.2119 98.5841 75.3334 98.4055Q80.4547 98.5841 84.8972 96.9344Q89.3485 95.2814 93.1182 91.7928Q96.8943 88.2982 98.8855 83.9804Q100.873 79.6707 101.083 74.5408L101.084 74.5L101.083 74.4592Q100.873 69.3293 98.8855 65.0196Q96.8943 60.7018 93.1182 57.2072Q89.3485 53.7186 84.8972 52.0656Q80.4547 50.4159 75.3334 50.5945Q70.2119 50.4158 65.7694 52.0656Q61.3181 53.7186 57.5486 57.2072Q53.7725 60.7018 51.7812 65.0194Q49.7936 69.3293 49.5841 74.4592L49.5825 74.5L49.5841 74.5408Q49.7936 79.6707 51.7811 83.9805ZM75.3334 51.5951C69.0162 51.3669 62.866 53.6487 58.2278 57.9412C53.5895 62.2336 50.8409 68.1873 50.5834 74.5C50.8409 80.8127 53.5895 86.7664 58.2278 91.0588C62.866 95.3513 69.0162 97.6331 75.3334 97.4049C81.6504 97.6331 87.8007 95.3513 92.439 91.0588C97.0771 86.7664 99.8257 80.8127 100.083 74.5C99.8257 68.1873 97.0771 62.2336 92.439 57.9412C87.8007 53.6487 81.6504 51.3669 75.3334 51.5951Z" fill="#0066FF" fill-opacity="1.000000" fill-rule="evenodd"/>
</svg>
