<svg width="150.000000" height="150.000000" viewBox="0 0 150 150" fill="none" xmlns="http://www.w3.org/2000/svg" xmlns:xlink="http://www.w3.org/1999/xlink">
	<desc>
			Created with Pixso.
	</desc>
	<defs/>
	<circle id="Ellipse 4" cx="75.000000" cy="75.000000" r="74.500000" stroke="#0066FF" stroke-opacity="1.000000" stroke-width="1.000000"/>
	<path id="Vector" d="M94 68.5L89.125 63.625L77.9451 52.445L74.5 49L71.0549 52.445L59.875 63.625L55 68.5L64.75 68.5L64.75 91.25L84.25 91.25L84.25 68.5L94 68.5ZM74.5 55.8932L82.2317 63.625L79.375 63.625L79.375 86.375L69.625 86.375L69.625 63.625L66.7683 63.625L74.5 55.8932ZM67.1875 96.125C66.541 96.125 65.9211 96.3818 65.4639 96.8389C65.0068 97.296 64.75 97.916 64.75 98.5625C64.75 99.209 65.0068 99.829 65.4639 100.286C65.9211 100.743 66.541 101 67.1875 101L81.8125 101C82.459 101 83.0789 100.743 83.5361 100.286C83.9932 99.829 84.25 99.209 84.25 98.5625C84.25 97.916 83.9932 97.296 83.5361 96.8389C83.0789 96.3818 82.459 96.125 81.8125 96.125L67.1875 96.125Z" fill="#0066FF" fill-opacity="1.000000" fill-rule="evenodd"/>
	<path id="Vector" d="M85.25 68.5L94 68.5L89.125 63.625L77.9451 52.445L75.207 49.7071L74.5 49L73.793 49.7071L55 68.5L64.75 68.5L64.75 91.25L84.25 91.25L84.25 68.5L85.25 68.5ZM83.25 90.25L83.25 67.5L91.5857 67.5L88.418 64.3321L77.2378 53.1521L74.5 50.4142L71.7622 53.1521L60.582 64.3321L57.4143 67.5L65.75 67.5L65.75 90.25L83.25 90.25ZM80.375 64.625L84.646 64.625L74.5 54.4791L64.354 64.625L68.625 64.625L68.625 87.375L80.375 87.375L80.375 64.625ZM79.375 64.625L79.375 63.625L82.2317 63.625L81.2317 62.625L75.207 56.6003L74.5 55.8932L73.793 56.6003L67.7683 62.625L66.7683 63.625L69.625 63.625L69.625 86.375L79.375 86.375L79.375 64.625ZM67.1875 96.125C66.541 96.125 65.9211 96.3818 65.4639 96.8389C65.0068 97.296 64.75 97.916 64.75 98.5625C64.75 99.209 65.0068 99.829 65.4639 100.286C65.9211 100.743 66.541 101 67.1875 101L81.8125 101C82.459 101 83.0789 100.743 83.5361 100.286C83.9932 99.829 84.25 99.209 84.25 98.5625C84.25 97.916 83.9932 97.296 83.5361 96.8389C83.0789 96.3818 82.459 96.125 81.8125 96.125L67.1875 96.125ZM65.8552 98.0107Q65.9604 97.7565 66.1711 97.546Q66.3816 97.3355 66.6357 97.2302Q66.8899 97.125 67.1875 97.125L81.8125 97.125Q82.1101 97.125 82.3643 97.2302Q82.6184 97.3355 82.8289 97.546Q83.0396 97.7566 83.1448 98.0107Q83.25 98.2648 83.25 98.5625Q83.25 98.8602 83.1448 99.1143Q83.0396 99.3684 82.8289 99.579Q82.6184 99.7895 82.3643 99.8948Q82.1101 100 81.8125 100L67.1875 100Q66.8899 100 66.6357 99.8948Q66.3816 99.7895 66.1711 99.579Q65.9604 99.3685 65.8552 99.1143Q65.75 98.8602 65.75 98.5625Q65.75 98.2648 65.8552 98.0107Z" fill="#FFFFFF" fill-opacity="1.000000" fill-rule="evenodd"/>
</svg>
