<svg width="150.000000" height="150.000000" viewBox="0 0 150 150" fill="none" xmlns="http://www.w3.org/2000/svg" xmlns:xlink="http://www.w3.org/1999/xlink">
	<desc>
			Created with Pixso.
	</desc>
	<defs/>
	<circle id="Ellipse 1" cx="75.000000" cy="75.000000" r="75.000000" fill="#FFFFFF" fill-opacity="1.000000"/>
	<circle id="Ellipse 1" cx="75.000000" cy="75.000000" r="74.500000" stroke="#0066FF" stroke-opacity="1.000000" stroke-width="1.000000"/>
	<path id="Vector" d="M104.783 76.9643C104.333 72.0394 103.591 71.0802 103.311 70.7194C102.667 69.8858 101.637 69.341 100.547 68.7694C100.485 68.7377 100.432 68.6923 100.392 68.6371C100.351 68.5818 100.324 68.5181 100.313 68.451C100.302 68.3839 100.307 68.3151 100.328 68.2502C100.349 68.1854 100.385 68.1262 100.433 68.0772C100.635 67.8776 100.79 67.6378 100.888 67.3741C100.986 67.1105 101.024 66.8294 101 66.5501C100.953 66.0548 100.716 65.5948 100.338 65.2614C99.9592 64.928 99.4658 64.7454 98.9556 64.75L97.0054 64.75C96.9218 64.7505 96.8383 64.7558 96.7552 64.7659C96.6984 64.7418 96.6394 64.7226 96.579 64.7086C95.4238 62.3284 93.8424 59.0694 90.5645 57.4789C85.7024 55.1219 76.7461 55 74.9958 55C73.2456 55 64.2893 55.1219 59.4336 57.4753C56.1556 59.0657 54.5741 62.3247 53.4189 64.7049L53.4089 64.7244C53.3513 64.7323 53.2947 64.7462 53.2401 64.7659C53.1572 64.7558 53.0737 64.7505 52.9901 64.75L51.0361 64.75C50.5259 64.7454 50.0326 64.928 49.6539 65.2614C49.2753 65.5948 49.0391 66.0548 48.9921 66.5501C48.9698 66.8287 49.0096 67.1088 49.1086 67.3711C49.2076 67.6334 49.3636 67.8718 49.5659 68.0699C49.6143 68.1188 49.6503 68.1781 49.6711 68.243C49.692 68.3078 49.6971 68.3765 49.6862 68.4437C49.675 68.5108 49.6482 68.5745 49.6075 68.6298C49.567 68.6851 49.5138 68.7303 49.4521 68.7621C48.3619 69.3374 47.3268 69.8821 46.688 70.7121C46.408 71.0778 45.6678 72.032 45.2164 76.957C44.9664 79.7285 44.929 82.5974 45.1252 84.445C45.5365 88.2841 46.3079 90.6046 46.3403 90.7009C46.4587 91.0512 46.6766 91.3617 46.9688 91.5962C47.2609 91.8307 47.6152 91.9796 47.9906 92.0256L47.9906 92.05C47.9906 92.5672 48.2014 93.0632 48.5765 93.4288C48.9517 93.7946 49.4604 94 49.991 94L56.9919 94C57.5225 94 58.0312 93.7946 58.4064 93.4288C58.7815 93.0632 58.9923 92.5672 58.9923 92.05C60.0686 92.05 60.8175 91.8623 61.6113 91.6624C62.7576 91.3614 63.9291 91.1611 65.1119 91.064C68.9263 90.7094 72.7192 90.5875 74.9958 90.5875C77.2262 90.5875 81.1868 90.7094 85.0073 91.064C86.1948 91.1613 87.371 91.3624 88.5216 91.6649C89.2817 91.855 90.0031 92.0305 91.002 92.0488C91.002 92.566 91.2126 93.062 91.5879 93.4276C91.963 93.7933 92.4718 93.9988 93.0022 93.9988L100.003 93.9988C100.534 93.9988 101.043 93.7933 101.418 93.4276C101.793 93.062 102.004 92.566 102.004 92.0488L102.004 92.0342C102.38 91.989 102.735 91.8405 103.028 91.6059C103.321 91.3713 103.54 91.0604 103.659 90.7094C103.691 90.6131 104.463 88.2926 104.874 84.4536C105.07 82.6047 105.035 79.7406 104.783 76.9643ZM57.0344 66.3721C58.0347 64.3003 59.1786 61.9554 61.2151 60.967C64.158 59.5386 70.2577 58.8951 74.9958 58.8951C79.734 58.8951 85.8337 59.5338 88.7766 60.967C90.8132 61.9554 91.9521 64.3015 92.9573 66.3721L93.0823 66.6366C93.1554 66.7872 93.1877 66.9535 93.1761 67.1197C93.1646 67.2859 93.1095 67.4464 93.0162 67.586C92.923 67.7256 92.7946 67.8395 92.6433 67.9169C92.4921 67.9944 92.323 68.0328 92.1521 68.0284C87.9978 67.9188 79.2465 67.5677 74.9958 67.5677C70.7452 67.5677 61.9939 67.9273 57.8334 68.037C57.6625 68.0413 57.4934 68.0029 57.3422 67.9255C57.1908 67.848 57.0625 67.7341 56.9692 67.5945C56.8759 67.455 56.8209 67.2944 56.8093 67.1282C56.7977 66.962 56.8301 66.7957 56.9032 66.6451C56.9469 66.555 56.9932 66.4636 57.0344 66.3721ZM58.5259 76.0771C56.3754 76.3294 54.2111 76.4539 52.0449 76.45C50.7197 76.45 49.3534 76.0844 49.0995 74.9339C48.9258 74.16 48.9446 73.7249 49.0383 73.2874C49.1171 72.9156 49.2421 72.6451 49.8672 72.55C51.4924 72.3063 52.4012 72.6122 55.0616 73.3763C56.8257 73.8821 58.0984 74.5561 58.8235 75.0898C59.1873 75.3531 58.9935 76.0405 58.5259 76.0771ZM86.2025 86.0708C84.5573 86.2536 81.2667 86.1866 75.0333 86.1866C68.7999 86.1866 65.5107 86.2536 63.8655 86.0708C62.1677 85.8868 60.0037 84.3219 61.4813 82.9277C62.4652 82.0087 64.7606 81.3214 67.8173 80.935C70.874 80.5486 72.168 80.35 75.0209 80.35C77.8738 80.35 79.0365 80.4719 82.2244 80.9362C85.4124 81.4006 87.8215 82.0965 88.5603 82.9289C89.9081 84.4207 87.899 85.877 86.2025 86.0781L86.2025 86.0708ZM100.892 74.9327C100.642 76.088 99.267 76.4488 97.9468 76.4488C95.7391 76.4493 93.5334 76.3248 91.3408 76.0759C90.9583 76.0405 90.7806 75.386 91.1682 75.0887C91.8821 74.5414 93.1686 73.8809 94.9301 73.3751C97.5905 72.611 99.1244 72.3051 100.442 72.5598C100.763 72.6219 100.933 72.9583 100.953 73.1691C101.042 73.7562 101.021 74.3539 100.892 74.9339L100.892 74.9327Z" fill="#0066FF" fill-opacity="1.000000" fill-rule="nonzero"/>
	<path id="Vector" d="M102.004 92.0342C102.38 91.989 102.735 91.8405 103.028 91.6059C103.321 91.3713 103.54 91.0604 103.659 90.7094C103.691 90.6131 104.463 88.2926 104.874 84.4536C105.07 82.6047 105.035 79.7406 104.783 76.9643C104.333 72.0394 103.591 71.0802 103.311 70.7194C102.667 69.8858 101.637 69.341 100.547 68.7694C100.485 68.7377 100.432 68.6923 100.392 68.6371C100.351 68.5818 100.324 68.5181 100.313 68.451C100.302 68.3839 100.307 68.3151 100.328 68.2502C100.349 68.1854 100.385 68.1262 100.433 68.0772C100.635 67.8776 100.79 67.6378 100.888 67.3741C100.986 67.1105 101.024 66.8294 101 66.5501C100.953 66.0548 100.716 65.5948 100.338 65.2614C99.9592 64.928 99.4658 64.7454 98.9556 64.75L97.0054 64.75C96.9218 64.7505 96.8383 64.7558 96.7552 64.7659C96.6984 64.7418 96.6394 64.7226 96.579 64.7086C95.4238 62.3284 93.8424 59.0694 90.5645 57.4789C85.7024 55.1219 76.7461 55 74.9958 55C73.2456 55 64.2893 55.1219 59.4336 57.4753C56.1556 59.0657 54.5741 62.3247 53.4189 64.7049L53.4089 64.7244C53.3513 64.7323 53.2947 64.7462 53.2401 64.7659C53.1572 64.7558 53.0737 64.7505 52.9901 64.75L51.0361 64.75C50.5259 64.7454 50.0326 64.928 49.6539 65.2614C49.2753 65.5948 49.0391 66.0548 48.9921 66.5501C48.9698 66.8287 49.0096 67.1088 49.1086 67.3711C49.2076 67.6334 49.3636 67.8718 49.5659 68.0699C49.6143 68.1188 49.6503 68.1781 49.6711 68.243C49.692 68.3078 49.6971 68.3765 49.6862 68.4437C49.675 68.5108 49.6482 68.5745 49.6075 68.6298C49.567 68.6851 49.5138 68.7303 49.4521 68.7621C48.3619 69.3374 47.3268 69.8821 46.688 70.7121C46.408 71.0778 45.6678 72.032 45.2164 76.957C44.9664 79.7285 44.929 82.5974 45.1252 84.445C45.5365 88.2841 46.3079 90.6046 46.3403 90.7009C46.4587 91.0512 46.6766 91.3617 46.9688 91.5962C47.2609 91.8307 47.6152 91.9796 47.9906 92.0256L47.9906 92.05C47.9906 92.5672 48.2014 93.0632 48.5765 93.4288C48.9517 93.7946 49.4604 94 49.991 94L56.9919 94C57.5225 94 58.0312 93.7946 58.4064 93.4288C58.7815 93.0632 58.9923 92.5672 58.9923 92.05C60.0686 92.05 60.8175 91.8623 61.6113 91.6624C62.7576 91.3614 63.9291 91.1611 65.1119 91.064C68.9263 90.7094 72.7192 90.5875 74.9958 90.5875C77.2262 90.5875 81.1868 90.7094 85.0073 91.064C86.1948 91.1613 87.371 91.3624 88.5216 91.6649C89.2816 91.855 90.0029 92.0305 91.0017 92.0488L91.002 92.0488C91.002 92.566 91.2126 93.062 91.5879 93.4276C91.963 93.7933 92.4718 93.9988 93.0022 93.9988L100.003 93.9988C100.534 93.9988 101.043 93.7933 101.418 93.4276C101.793 93.062 102.004 92.566 102.004 92.0488L102.004 92.0342ZM100.083 69.6551Q102.004 70.6622 102.52 71.3307L102.521 71.3326Q103.363 72.4169 103.787 77.0549Q104.187 81.4531 103.88 84.347Q103.474 88.1295 102.712 90.389Q102.675 90.4974 102.615 90.5912Q102.532 90.7224 102.404 90.8252Q102.305 90.9041 102.193 90.9553Q102.05 91.0214 101.884 91.0413L101.004 91.147L101.004 92.0488Q101.004 92.2247 100.945 92.3779Q100.874 92.561 100.72 92.7116Q100.585 92.8427 100.424 92.9139Q100.233 92.9988 100.003 92.9988L93.0022 92.9988Q92.7729 92.9988 92.5812 92.9139Q92.4203 92.8426 92.2859 92.7116Q92.1313 92.5609 92.0609 92.3779Q92.002 92.2247 92.002 92.0488L92.002 91.0669L91.0203 91.049Q90.114 91.0323 88.7759 90.6978Q87.6121 90.3918 86.4288 90.2194Q85.7673 90.123 85.0997 90.0683Q79.9202 89.5875 74.9958 89.5875Q70.1904 89.5875 65.0302 90.0674Q63.6779 90.1783 62.3611 90.4571Q61.8616 90.5628 61.3672 90.6927Q59.9481 91.05 58.9923 91.05L57.9923 91.05L57.9923 92.05Q57.9923 92.2259 57.9333 92.3791Q57.8629 92.5621 57.7084 92.7128Q57.5739 92.8439 57.413 92.9151Q57.2213 93 56.9919 93L49.991 93Q49.7616 93 49.5698 92.9151Q49.4089 92.8439 49.2745 92.7128Q49.12 92.5621 49.0496 92.3792Q48.9906 92.2259 48.9906 92.05L48.9906 91.1407L48.1123 91.0331Q47.9474 91.0128 47.8037 90.9464Q47.6929 90.8951 47.5947 90.8163Q47.4663 90.7133 47.3831 90.5816Q47.3241 90.4885 47.2878 90.381Q46.5248 88.1205 46.1196 84.3394Q45.8141 81.4628 46.2123 77.0483Q46.636 72.4244 47.4795 71.3232L47.4803 71.3221Q47.9844 70.6672 49.9093 69.6516L49.9103 69.651Q50.0664 69.5705 50.1956 69.4587Q50.3164 69.354 50.4135 69.2219Q50.5176 69.0801 50.5831 68.9223Q50.6456 68.7714 50.6729 68.6058Q50.7007 68.4364 50.6885 68.2699Q50.6763 68.1018 50.6232 67.9367Q50.5945 67.8476 50.5547 67.7638Q50.4492 67.5412 50.2657 67.3555Q50.1749 67.2667 50.1127 67.1611Q50.0725 67.093 50.0442 67.0179Q49.978 66.8426 49.986 66.6707Q49.9866 66.6577 49.9875 66.6446Q50.0035 66.4763 50.0708 66.3318Q50.1538 66.1537 50.3148 66.0119Q50.4401 65.9016 50.5857 65.8378Q50.7906 65.7478 51.0361 65.75L52.9844 65.75Q53.0193 65.7502 53.0541 65.7524Q53.0869 65.7546 53.1196 65.7585L53.3553 65.7872L53.5621 65.7128L54.0609 65.6443L54.3137 65.1514L54.3186 65.1415L54.3187 65.1411Q56.9041 59.8141 59.8698 58.3752Q64.7703 56 74.9958 56Q85.2214 56 90.1279 58.3786Q93.0939 59.8177 95.6792 65.1448L95.6794 65.1452L95.8877 65.5745L96.3525 65.6826Q96.3595 65.6842 96.3658 65.6869L96.6113 65.7906L96.8759 65.7585Q96.9432 65.7504 97.0054 65.75L98.9646 65.7499Q99.1875 65.748 99.3783 65.8253Q99.5391 65.8904 99.6769 66.0119Q99.8492 66.1637 99.932 66.3544Q99.9891 66.4862 100.003 66.6367Q100.012 66.7308 100 66.8225Q99.9878 66.926 99.9506 67.0264Q99.9424 67.0483 99.9332 67.0698Q99.8613 67.2366 99.722 67.3743Q99.598 67.4998 99.51 67.6469Q99.427 67.7858 99.3761 67.944Q99.3228 68.1097 99.3105 68.2783Q99.2986 68.4443 99.3263 68.6132Q99.3535 68.7786 99.416 68.9294Q99.4816 69.0874 99.5858 69.2292Q99.7028 69.3884 99.8521 69.5065Q99.959 69.5913 100.083 69.6551ZM74.9958 57.8951Q65.254 57.8951 60.7784 60.0674L60.7784 60.0674Q58.4135 61.2152 56.1339 65.9374L56.1283 65.949L56.123 65.9608Q56.0997 66.0122 56.0421 66.1296Q56.0166 66.1817 56.0037 66.2084Q55.8877 66.4472 55.84 66.699Q55.7939 66.9422 55.8118 67.1976Q55.8292 67.4495 55.9067 67.6815Q55.9886 67.9271 56.1378 68.1501Q56.2742 68.3542 56.4502 68.5147Q56.6442 68.6916 56.8864 68.8156Q57.1068 68.9285 57.3409 68.9839Q57.5924 69.0435 57.8597 69.0366Q59.1722 69.002 62.8737 68.8777Q72.0992 68.5677 74.9958 68.5677Q77.9263 68.5677 87.2617 68.876Q90.8483 68.9944 92.1266 69.0281Q92.39 69.0349 92.6382 68.9769Q92.8755 68.9215 93.0991 68.8071Q93.3412 68.6831 93.5353 68.5062Q93.7113 68.3457 93.8477 68.1416Q93.9968 67.9185 94.0787 67.673Q94.1562 67.441 94.1737 67.189Q94.1942 66.894 94.1311 66.6183Q94.083 66.4082 93.9863 66.2092L93.8568 65.9355Q91.5616 61.2071 89.2145 60.0679Q84.7529 57.8951 74.9958 57.8951ZM57.0344 66.3721C58.0347 64.3003 59.1786 61.9554 61.2151 60.967C64.158 59.5386 70.2577 58.8951 74.9958 58.8951C79.734 58.8951 85.8337 59.5338 88.7766 60.967C90.8132 61.9554 91.9521 64.3015 92.9573 66.3721L93.0823 66.6366C93.1554 66.7872 93.1877 66.9535 93.1761 67.1197C93.1646 67.2859 93.1095 67.4464 93.0162 67.586C92.923 67.7256 92.7946 67.8395 92.6433 67.9169C92.4921 67.9944 92.323 68.0328 92.1521 68.0284C87.9978 67.9188 79.2465 67.5677 74.9958 67.5677C70.7452 67.5677 61.9939 67.9273 57.8334 68.037C57.6625 68.0413 57.4934 68.0029 57.3422 67.9255C57.1908 67.848 57.0625 67.7341 56.9692 67.5945C56.8759 67.455 56.8209 67.2944 56.8093 67.1282C56.7977 66.962 56.8301 66.7957 56.9032 66.6451C56.9469 66.555 56.9932 66.4636 57.0344 66.3721ZM97.9468 77.4488L97.947 77.4488Q100.42 77.4487 101.367 76.2466Q101.729 75.7866 101.868 75.1505L101.868 75.1505Q101.987 74.6173 102.005 74.0807Q102.022 73.5648 101.946 73.0457Q101.878 72.3973 101.521 72.0256Q101.196 71.687 100.632 71.5779Q98.7985 71.2235 94.6541 72.4139Q92.0314 73.167 90.5594 74.2953Q90.1865 74.5814 90.0391 74.9562Q89.8768 75.3689 89.9877 75.889Q90.119 76.5048 90.4993 76.8017Q90.7905 77.0292 91.228 77.0695Q92.816 77.2498 94.4092 77.3444Q96.1748 77.4492 97.9468 77.4488ZM100.865 75.0405C100.555 76.1106 99.225 76.4488 97.9468 76.4488C95.7391 76.4493 93.5334 76.3248 91.3408 76.0759C90.9583 76.0405 90.7806 75.386 91.1682 75.0887C91.8821 74.5414 93.1686 73.8809 94.9301 73.3751C97.5905 72.611 99.1244 72.3051 100.442 72.5598C100.763 72.6219 100.933 72.9583 100.953 73.1691C101.036 73.7206 101.023 74.2814 100.914 74.8281C100.907 74.863 100.9 74.8979 100.892 74.9327L100.892 74.9339L100.892 74.9327L100.892 74.9338C100.884 74.9702 100.875 75.0057 100.865 75.0405ZM52.0432 77.45L52.0449 77.45Q53.7869 77.4531 55.5222 77.3478Q57.0767 77.2535 58.626 77.0722Q59.0934 77.0307 59.4099 76.7904Q59.7823 76.5078 59.946 75.95Q60.1154 75.3727 59.942 74.9294Q59.7979 74.5606 59.4164 74.2845Q57.859 73.1381 55.3378 72.4152Q55.183 72.3707 54.8923 72.2869Q51.4653 71.2991 49.7168 71.5613Q48.9806 71.6733 48.5585 72.0977Q48.1896 72.4685 48.0605 73.0778Q47.8639 73.9952 48.123 75.1493Q48.264 75.7885 48.6294 76.25Q49.5787 77.4496 52.0432 77.45ZM58.5259 76.0771C56.3754 76.3294 54.2111 76.4539 52.0449 76.45C50.7197 76.45 49.3534 76.0844 49.0995 74.9339C48.9258 74.16 48.9446 73.7249 49.0383 73.2874C49.1171 72.9156 49.2421 72.6451 49.8672 72.55C51.3979 72.3204 52.2933 72.5785 54.6154 73.2478C54.7585 73.2891 54.9071 73.3319 55.0616 73.3763C56.8257 73.8821 58.0984 74.5561 58.8235 75.0898C59.1873 75.3531 58.9935 76.0405 58.5259 76.0771ZM71.1091 87.1936Q73.5688 87.1866 75.0333 87.1866Q76.4979 87.1866 78.9576 87.1936Q83.3026 87.2059 85.2025 87.1339L85.2025 87.2037L86.3202 87.0712Q87.6522 86.9133 88.6107 86.2309Q88.9536 85.9868 89.2487 85.6755Q90.0631 84.8167 90.068 83.9531Q90.0728 83.1113 89.3082 82.265Q87.9752 80.7633 82.3685 79.9467Q78.2722 79.35 75.0209 79.35Q72.347 79.35 68.4344 79.8485Q67.9513 79.9101 67.6919 79.9429Q62.511 80.5977 60.795 82.2003Q60.1915 82.7698 60.04 83.4413Q59.9742 83.7328 59.9937 84.0435Q60.0021 84.1771 60.0262 84.3077Q60.1584 85.0216 60.7634 85.6478Q61.1718 86.0706 61.6562 86.3705Q62.5702 86.9363 63.755 87.0647Q65.0697 87.2108 71.1091 87.1936ZM85.2025 86.1445C83.869 86.2076 81.8785 86.2019 78.9606 86.1936L78.9604 86.1936C77.803 86.1903 76.4996 86.1866 75.0333 86.1866C73.567 86.1866 72.2637 86.1903 71.1063 86.1936L71.1063 86.1936C67.3434 86.2043 65.1237 86.2106 63.8655 86.0708C62.1677 85.8868 60.0037 84.3219 61.4813 82.9277C62.4652 82.0087 64.7606 81.3214 67.8173 80.935C70.874 80.5486 72.168 80.35 75.0209 80.35C77.8738 80.35 79.0365 80.4719 82.2244 80.9362C85.4124 81.4006 87.8215 82.0965 88.5603 82.9289C89.6455 84.13 88.5544 85.3082 87.2025 85.8267C86.8756 85.952 86.5336 86.0388 86.2034 86.078L86.2025 86.0781L86.2025 86.0708L86.2017 86.0709C85.9192 86.1023 85.5884 86.1263 85.2025 86.1445Z" fill="#0066FF" fill-opacity="1.000000" fill-rule="evenodd"/>
</svg>
