<svg width="150.000000" height="150.000000" viewBox="0 0 150 150" fill="none" xmlns="http://www.w3.org/2000/svg" xmlns:xlink="http://www.w3.org/1999/xlink">
	<desc>
			Created with Pixso.
	</desc>
	<defs/>
	<circle id="Ellipse 3" cx="75.000000" cy="75.000000" r="75.000000" fill="#FFFFFF" fill-opacity="1.000000"/>
	<circle id="Ellipse 3" cx="75.000000" cy="75.000000" r="74.500000" stroke="#0066FF" stroke-opacity="1.000000" stroke-width="1.000000"/>
	<path id="Vector" d="M54.75 54C52.1642 54 49.6842 55.0272 47.8557 56.8557C46.0272 58.6842 45 61.1641 45 63.75L45 67.5L105 67.5L105 63.75C105 62.4696 104.748 61.2018 104.258 60.0189C103.768 58.8359 103.05 57.7611 102.144 56.8557C101.239 55.9503 100.164 55.2322 98.9812 54.7422C97.7982 54.2522 96.5304 54 95.25 54L54.75 54ZM105 72L45 72L45 86.25C45 88.8359 46.0272 91.3158 47.8557 93.1443C49.6842 94.9728 52.1642 96 54.75 96L95.25 96C96.5304 96 97.7982 95.7478 98.9812 95.2578C100.164 94.7678 101.239 94.0497 102.144 93.1443C103.05 92.2389 103.768 91.1641 104.258 89.9811C104.748 88.7982 105 87.5304 105 86.25L105 72ZM86.25 82.5L93.75 82.5C94.3467 82.5 94.9191 82.7371 95.3409 83.159C95.7629 83.581 96 84.1533 96 84.75C96 85.3467 95.7629 85.919 95.3409 86.341C94.9191 86.7629 94.3467 87 93.75 87L86.25 87C85.6533 87 85.0809 86.7629 84.6591 86.341C84.2371 85.919 84 85.3467 84 84.75C84 84.1533 84.2371 83.581 84.6591 83.159C85.0809 82.7371 85.6533 82.5 86.25 82.5Z" fill="#0066FF" fill-opacity="1.000000" fill-rule="nonzero"/>
	<path id="Vector" d="M54.75 54C52.1642 54 49.6842 55.0272 47.8557 56.8557C46.0272 58.6842 45 61.1641 45 63.75L45 67.5L105 67.5L105 63.75C105 62.4696 104.748 61.2018 104.258 60.0189C103.768 58.8359 103.05 57.7611 102.144 56.8557C101.239 55.9503 100.164 55.2322 98.9812 54.7422C97.7982 54.2522 96.5304 54 95.25 54L54.75 54ZM104 66.5L104 63.75Q104 62.8798 103.833 62.0427Q103.667 61.2056 103.334 60.4015Q103.001 59.5975 102.527 58.8879Q102.053 58.1782 101.437 57.5628Q100.822 56.9474 100.112 56.4733Q99.4025 55.9991 98.5985 55.6661Q97.7946 55.3331 96.9574 55.1665Q96.1202 55 95.25 55L54.75 55Q52.9379 55 51.391 55.6407Q49.8442 56.2814 48.5629 57.5628Q47.2814 58.8442 46.6407 60.391Q46 61.9378 46 63.75L46 66.5L104 66.5ZM46 72L45 72L45 86.25C45 88.8359 46.0272 91.3158 47.8557 93.1443C49.6842 94.9728 52.1642 96 54.75 96L95.25 96C96.5304 96 97.7982 95.7478 98.9812 95.2578C100.164 94.7678 101.239 94.0497 102.144 93.1443C103.05 92.2389 103.768 91.1641 104.258 89.9811C104.748 88.7982 105 87.5304 105 86.25L105 72L46 72ZM104 73L46 73L46 86.25Q46 88.0622 46.6407 89.6089Q47.2814 91.1558 48.5629 92.4372Q49.8442 93.7186 51.391 94.3593Q52.9379 95 54.75 95L95.25 95Q96.1206 95 96.958 94.8334Q97.7948 94.6669 98.5985 94.3339Q99.4026 94.0009 100.112 93.5266Q100.822 93.0525 101.437 92.4372Q102.052 91.8218 102.527 91.1122Q103.001 90.4025 103.334 89.5985Q103.667 88.7944 103.833 87.9573Q104 87.1202 104 86.25L104 73ZM94.9977 81.738Q94.4231 81.5 93.75 81.5L86.25 81.5Q85.5769 81.5 85.0024 81.738Q84.4279 81.976 83.9519 82.4519Q83.476 82.9279 83.2379 83.5024Q83 84.0769 83 84.75Q83 85.4231 83.238 85.9976Q83.476 86.5721 83.9519 87.0481Q84.4279 87.524 85.0023 87.762Q85.5769 88 86.25 88L93.75 88Q94.4231 88 94.9977 87.762Q95.5721 87.524 96.0481 87.0481Q96.524 86.5721 96.7621 85.9976Q97 85.4231 97 84.75Q97 84.077 96.7621 83.5024Q96.524 82.9279 96.0481 82.4519Q95.5721 81.976 94.9977 81.738ZM86.25 82.5L93.75 82.5C94.3467 82.5 94.9191 82.7371 95.3409 83.159C95.7629 83.581 96 84.1533 96 84.75C96 85.3467 95.7629 85.919 95.3409 86.341C94.9191 86.7629 94.3467 87 93.75 87L86.25 87C85.6533 87 85.0809 86.7629 84.6591 86.341C84.2371 85.919 84 85.3467 84 84.75C84 84.1533 84.2371 83.581 84.6591 83.159C85.0809 82.7371 85.6533 82.5 86.25 82.5Z" fill="#0066FF" fill-opacity="1.000000" fill-rule="evenodd"/>
</svg>
